{
  "accessors": [
    {
      "bufferView": 2,
      "componentType": 5126,
      "count": 16870,
      "max": [
        17.696002960205078,
        0.46496117115020752,
        16.82806396484375
      ],
      "min": [
        -20.861801147460938,
        -25.116888046264648,
        -19.483037948608398
      ],
      "type": "VEC3"
    },
    {
      "bufferView": 2,
      "byteOffset": 202440,
      "componentType": 5126,
      "count": 16870,
      "max": [
        0.99981015920639038,
        0.99997782707214355,
        0.99978083372116089
      ],
      "min": [
        -0.99943941831588745,
        -0.99937629699707031,
        -0.99962776899337769
      ],
      "type": "VEC3"
    },
    {
      "bufferView": 3,
      "componentType": 5126,
      "count": 16870,
      "max": [
        0.9999997615814209,
        0.99999898672103882,
        0.99135959148406982,
        1
      ],
      "min": [
        -0.99999970197677612,
        -0.9999958872795105,
        -0.9974139928817749,
        -1
      ],
      "type": "VEC4"
    },
    {
      "bufferView": 1,
      "componentType": 5126,
      "count": 16870,
      "max": [
        0.99974101781845093,
        0.99975597858428955
      ],
      "min": [
        0.00024399999529123306,
        0.00025300000561401248
      ],
      "type": "VEC2"
    },
    {
      "bufferView": 0,
      "componentType": 5125,
      "count": 54234,
      "max": [
        16869
      ],
      "min": [
        0
      ],
      "type": "SCALAR"
    }
  ],
  "asset": {
    "extras": {
      "author": "PANOLUMA (https://sketchfab.com/panoluma)",
      "license": "CC-BY-4.0 (http://creativecommons.org/licenses/by/4.0/)",
      "source": "https://sketchfab.com/3d-models/seashell-e4d2903fd8c643669c2d3b3ab081e5e7",
      "title": "Seashell"
    },
    "generator": "Sketchfab-8.35.0",
    "version": "2.0"
  },
  "bufferViews": [
    {
      "buffer": 0,
      "byteLength": 216936,
      "byteOffset": 0,
      "name": "floatBufferViews",
      "target": 34963
    },
    {
      "buffer": 0,
      "byteLength": 134960,
      "byteOffset": 216936,
      "byteStride": 8,
      "name": "floatBufferViews",
      "target": 34962
    },
    {
      "buffer": 0,
      "byteLength": 404880,
      "byteOffset": 351896,
      "byteStride": 12,
      "name": "floatBufferViews",
      "target": 34962
    },
    {
      "buffer": 0,
      "byteLength": 269920,
      "byteOffset": 756776,
      "byteStride": 16,
      "name": "floatBufferViews",
      "target": 34962
    }
  ],
  "buffers": [
    {
      "byteLength": 1026696,
      "uri": "scene.bin"
    }
  ],
  "images": [
    {
      "uri": "textures/seashell.18K.TEX_baseColor.png"
    },
    {
      "uri": "textures/seashell.18K.TEX_metallicRoughness.png"
    },
    {
      "uri": "textures/seashell.18K.TEX_normal.png"
    }
  ],
  "materials": [
    {
      "doubleSided": true,
      "emissiveFactor": [
        0,
        0,
        0
      ],
      "name": "seashell.18K.TEX",
      "normalTexture": {
        "index": 2,
        "scale": 1,
        "texCoord": 0
      },
      "occlusionTexture": {
        "index": 1,
        "strength": 1,
        "texCoord": 0
      },
      "pbrMetallicRoughness": {
        "baseColorFactor": [
          1,
          1,
          1,
          1
        ],
        "baseColorTexture": {
          "index": 0,
          "texCoord": 0
        },
        "metallicFactor": 0,
        "metallicRoughnessTexture": {
          "index": 1,
          "texCoord": 0
        },
        "roughnessFactor": 0.40851315445463887
      }
    }
  ],
  "meshes": [
    {
      "primitives": [
        {
          "attributes": {
            "NORMAL": 1,
            "POSITION": 0,
            "TANGENT": 2,
            "TEXCOORD_0": 3
          },
          "indices": 4,
          "material": 0,
          "mode": 4
        }
      ]
    }
  ],
  "nodes": [
    {
      "children": [
        1
      ],
      "name": "RootNode (gltf orientation matrix)",
      "rotation": [
        -0.70710678118654746,
        -0,
        -0,
        0.70710678118654757
      ]
    },
    {
      "children": [
        2
      ],
      "matrix": [
        0.019821081310510635,
        0,
        0,
        0,
        0,
        4.4011641687792558e-18,
        -0.019821081310510635,
        0,
        0,
        0.019821081310510635,
        4.4011641687792558e-18,
        0,
        0,
        -10.998575210571289,
        -13.65345573425293,
        1
      ],
      "name": "RootNode (model correction matrix)"
    },
    {
      "children": [
        3
      ],
      "name": "seashell.18K.TEX.obj.cleaner.materialmerger.gles"
    },
    {
      "mesh": 0,
      "name": ""
    }
  ],
  "samplers": [
    {
      "magFilter": 9729,
      "minFilter": 9987,
      "wrapS": 10497,
      "wrapT": 10497
    }
  ],
  "scene": 0,
  "scenes": [
    {
      "name": "OSG_Scene",
      "nodes": [
        0
      ]
    }
  ],
  "textures": [
    {
      "sampler": 0,
      "source": 0
    },
    {
      "sampler": 0,
      "source": 1
    },
    {
      "sampler": 0,
      "source": 2
    }
  ]
}

